<svg width="18" height="18" viewBox="0 0 18 18" fill="none" xmlns="http://www.w3.org/2000/svg">
<path d="M18 9C18 13.9706 13.9706 18 9 18C4.02944 18 0 13.9706 0 9C0 4.02944 4.02944 0 9 0C13.9706 0 18 4.02944 18 9Z" fill="url(#paint0_linear_154_1752)"/>
<path d="M13.0499 12.3258L13.533 9.25641H10.511V7.26543C10.511 6.4255 10.9324 5.60628 12.2859 5.60628H13.6607V2.99311C13.6607 2.99311 12.4136 2.78571 11.2218 2.78571C8.73188 2.78571 7.10594 4.25612 7.10594 6.91701V9.25641H4.33929V12.3258H7.10594L7.28571 17.8369C7.84115 17.922 8.42114 18 9 18C9.57886 18 9.95558 17.9587 10.511 17.8737V12.3258H13.0499Z" fill="white"/>
<defs>
<linearGradient id="paint0_linear_154_1752" x1="9" y1="0" x2="9" y2="17.9466" gradientUnits="userSpaceOnUse">
<stop stop-color="#18ACFE"/>
<stop offset="1" stop-color="#0163E0"/>
</linearGradient>
</defs>
</svg>
